<?xml version="1.0" standalone="no"?>
<!DOCTYPE svg PUBLIC "-//W3C//DTD SVG 20010904//EN"
 "http://www.w3.org/TR/2001/REC-SVG-20010904/DTD/svg10.dtd">
<svg version="1.0" xmlns="http://www.w3.org/2000/svg"
 width="700.000000pt" height="700.000000pt" viewBox="0 0 700.000000 700.000000"
 preserveAspectRatio="xMidYMid meet">
<metadata>
Created by potrace 1.14, written by Peter Selinger 2001-2017
</metadata>
<g transform="translate(0.000000,700.000000) scale(0.100000,-0.100000)"
fill="#000000" stroke="none">
<path d="M765 6994 c-11 -2 -45 -9 -75 -15 -232 -45 -439 -197 -577 -424 -26
-42 -55 -113 -81 -195 l-27 -85 0 -1900 0 -1900 28 -88 c95 -303 302 -511 604
-604 l88 -27 510 -4 c280 -2 511 -4 512 -5 1 -2 3 -230 5 -507 4 -482 5 -508
26 -583 58 -210 174 -375 348 -500 47 -34 185 -105 216 -111 7 -2 20 -6 28 -9
85 -31 91 -31 1975 -34 1246 -1 1887 1 1920 8 28 6 60 12 73 15 12 2 48 14 80
25 194 70 350 201 469 394 28 44 77 169 88 220 2 11 8 43 14 70 12 58 10 3766
-2 3803 -4 12 -9 32 -12 44 -42 191 -187 400 -358 517 -79 54 -207 108 -308
130 -87 19 -129 20 -573 21 -264 0 -481 2 -483 3 -1 2 -3 221 -4 488 -1 499
-3 535 -44 660 -22 67 -68 160 -108 218 -42 62 -149 173 -199 207 -24 16 -45
31 -48 34 -17 18 -189 97 -230 105 -16 3 -69 16 -90 22 -26 8 -3729 14 -3765
7z m4483 -3321 c-3 -1503 -4 -1580 -21 -1628 -45 -123 -134 -213 -267 -270
-44 -20 -83 -20 -1628 -23 l-1582 -2 0 1557 c0 966 4 1574 10 1600 36 156 163
287 320 329 35 10 407 13 1608 13 l1562 1 -2 -1577z"/>
</g>
</svg>
